<?xml version="1.0" standalone="no"?>
<!DOCTYPE svg PUBLIC "-//W3C//DTD SVG 20010904//EN"
 "http://www.w3.org/TR/2001/REC-SVG-20010904/DTD/svg10.dtd">
<svg version="1.0" xmlns="http://www.w3.org/2000/svg"
 width="50.000000pt" height="45.0000000pt" viewBox="0 0 800.000000 800.000000"
 >

<g transform="translate(0.000000,850.000000) scale(0.120000,-0.120000)"
fill="#000000" stroke="none">
<path d="M4105 6590 c-8 -14 -69 -520 -63 -526 8 -7 370 -55 376 -50 4 5 -28
539 -33 544 -8 8 -276 38 -280 32z m187 -210 c14 -184 13 -245 -2 -243 -8 1
-41 4 -72 8 -54 6 -58 8 -58 32 0 26 29 270 35 289 2 7 19 8 47 5 l43 -6 7
-85z"/>
<path d="M3495 6544 c-71 -14 -131 -27 -133 -29 -5 -4 88 -518 94 -524 5 -5
269 40 283 48 13 9 -7 101 -22 101 -7 0 -48 -7 -91 -15 -44 -8 -81 -14 -83
-12 -2 2 -9 36 -17 74 l-13 70 71 13 c125 21 119 18 111 59 -13 74 -5 70 -108
50 -50 -9 -92 -16 -93 -16 -1 1 -4 16 -7 34 -7 37 -9 36 106 54 l77 13 -6 35
c-9 58 -15 71 -27 70 -7 0 -70 -12 -142 -25z"/>
<path d="M4615 6510 c-7 -12 -163 -505 -160 -508 1 -1 64 -22 141 -46 l139
-44 16 46 c9 26 14 50 10 53 -3 4 -43 19 -88 34 -46 14 -83 30 -83 34 0 16 42
131 48 131 4 0 43 -11 87 -25 44 -14 83 -25 86 -25 11 0 32 91 23 100 -5 4
-43 18 -84 30 -41 12 -78 24 -82 26 -9 6 15 64 27 64 5 0 44 -12 85 -25 41
-14 77 -25 81 -25 7 0 41 91 36 96 -11 11 -278 90 -282 84z"/>
<path d="M3102 6430 c-73 -26 -135 -49 -137 -52 -4 -3 170 -496 178 -504 5 -5
258 85 270 96 6 5 -20 100 -27 100 -1 0 -39 -13 -84 -30 -46 -16 -86 -30 -90
-30 -4 0 -18 30 -31 66 -27 77 -30 73 69 105 36 12 69 25 74 29 8 8 -9 77 -24
93 -4 4 -44 -6 -90 -23 -46 -16 -87 -27 -91 -23 -4 5 -10 20 -14 34 -6 25 -3
27 79 55 47 16 86 34 86 40 0 15 -21 77 -29 86 -3 3 -66 -15 -139 -42z"/>
<path d="M4948 6243 c-40 -76 -72 -140 -71 -143 0 -3 47 -30 104 -60 57 -30
110 -59 117 -63 9 -6 7 -17 -8 -47 -11 -21 -24 -41 -29 -45 -6 -3 -62 22 -126
56 -64 34 -117 60 -119 58 -9 -10 -47 -91 -44 -93 10 -9 332 -175 334 -173 6
8 144 275 144 280 0 3 -52 34 -115 67 -63 34 -115 65 -115 68 1 15 47 87 56
85 5 -1 60 -28 122 -61 l113 -60 24 48 24 48 -163 86 c-90 47 -166 86 -169 86
-4 0 -39 -62 -79 -137z"/>
<path d="M2690 6239 c-74 -43 -139 -80 -144 -82 -11 -4 252 -467 265 -467 8 0
286 154 297 164 7 7 -152 276 -163 276 -6 0 -20 -7 -31 -15 -28 -21 -31 -19
-37 23 -12 73 -39 182 -46 181 -3 0 -67 -36 -141 -80z m97 -190 c13 -56 25
-104 27 -107 3 -2 25 7 49 22 35 20 47 23 55 13 11 -14 42 -73 42 -81 0 -6
-110 -69 -114 -65 -9 11 -156 272 -156 277 0 8 51 40 65 41 6 1 20 -45 32
-100z"/>
<path d="M5296 5923 c-170 -236 -166 -225 -99 -264 l28 -17 157 217 158 216
-28 23 c-58 49 -47 58 -216 -175z"/>
<path d="M2288 5952 c-75 -64 -137 -120 -137 -124 -1 -5 290 -350 334 -397 11
-11 36 6 154 108 96 83 139 126 134 135 -14 23 -337 396 -342 396 -4 -1 -68
-54 -143 -118z m242 -157 l103 -119 -59 -53 c-33 -29 -62 -51 -65 -50 -4 1
-53 56 -109 122 l-103 120 59 52 c33 29 62 52 65 50 4 -1 53 -56 109 -122z"/>
<path d="M5505 5873 c-205 -218 -230 -244 -233 -252 -1 -4 53 -61 122 -125
l125 -117 88 92 c48 50 89 94 91 98 1 3 -23 31 -53 61 l-55 54 -37 -36 c-36
-37 -37 -37 -18 -58 18 -20 18 -21 -1 -40 -19 -18 -20 -18 -67 25 -58 53 -63
42 79 187 l98 99 48 -48 c43 -42 46 -49 33 -63 -22 -24 -19 -32 21 -64 l36
-29 56 56 55 55 -123 119 c-67 65 -125 119 -129 121 -4 1 -65 -60 -136 -135z"/>
<path d="M3840 5670 c-331 -38 -633 -164 -891 -372 -528 -424 -752 -1112 -579
-1773 207 -790 968 -1331 1779 -1265 423 34 779 196 1075 488 300 296 472 665
506 1087 70 883 -551 1674 -1430 1821 -106 18 -360 26 -460 14z m180 -528 c52
-12 115 -27 140 -34 l44 -14 41 -134 c49 -164 83 -249 140 -357 47 -89 140
-216 203 -276 l40 -39 43 48 c52 55 101 80 205 99 166 32 347 10 491 -61 101
-50 111 -66 31 -48 -35 8 -119 17 -188 21 -155 7 -260 -11 -370 -65 -71 -35
-76 -40 -112 -107 -47 -87 -81 -191 -104 -320 -21 -121 -24 -455 -6 -610 7
-55 15 -118 17 -140 l5 -40 -13 34 -13 34 -20 -29 c-11 -16 -87 -138 -169
-271 -82 -133 -150 -241 -152 -239 -1 1 63 166 144 366 l147 363 -12 66 c-35
189 -44 299 -39 456 6 165 21 248 64 345 l19 45 -50 60 c-144 173 -260 394
-321 612 l-25 88 3 -76 2 -77 -28 52 c-15 28 -45 68 -65 89 -36 38 -90 73 -98
64 -3 -2 5 -25 16 -51 25 -59 53 -156 47 -162 -2 -3 -35 11 -73 30 -56 27
-161 66 -182 66 -2 0 17 -23 43 -52 25 -28 53 -66 62 -82 15 -30 15 -31 -3
-14 -22 19 -94 52 -94 42 0 -3 21 -26 48 -51 l47 -44 -45 23 c-68 35 -157 129
-166 174 -9 47 15 93 65 128 42 29 113 56 147 56 13 0 24 4 24 9 0 15 -132 22
-230 12 l-95 -10 -43 -48 c-43 -48 -124 -202 -158 -301 -14 -41 -31 -64 -71
-98 l-52 -45 15 53 c56 188 136 336 243 451 l36 39 165 -5 c114 -3 195 -11
260 -25z m426 -308 c125 -75 329 -163 639 -276 l190 -69 -79 6 c-44 3 -186 8
-315 11 l-236 7 -55 56 c-61 61 -225 301 -207 301 3 0 31 -16 63 -36z m-647
-79 c90 -48 191 -125 191 -145 0 -9 -10 -32 -23 -51 -20 -30 -29 -34 -70 -37
-26 -2 -47 0 -47 4 0 4 11 22 25 40 14 18 25 37 25 41 0 32 -156 141 -233 162
-41 12 -48 11 -93 -12 -61 -31 -148 -107 -237 -206 -67 -75 -68 -76 -63 -123
3 -27 4 -48 2 -48 -18 0 -66 25 -66 34 0 39 142 221 229 293 76 62 128 81 225
82 59 1 76 -3 135 -34z m151 -286 c45 -27 80 -59 80 -74 0 -7 -36 -20 -82 -30
-100 -22 -209 -58 -256 -85 -19 -12 -61 -43 -92 -71 -74 -64 -94 -59 -103 28
-6 55 -5 60 26 91 82 84 217 141 382 161 6 0 26 -9 45 -20z m301 -106 c15 -15
29 -43 33 -62 7 -40 7 -40 -39 25 -35 49 -44 49 -25 -2 9 -24 9 -25 -5 -14
-27 22 -16 -2 25 -57 23 -29 35 -53 28 -53 -22 1 -54 33 -82 81 -27 48 -32 64
-16 54 5 -3 7 14 3 47 l-6 52 29 -21 c16 -12 41 -34 55 -50z m-987 -9 c70 -17
143 -60 150 -89 11 -41 6 -112 -9 -125 -12 -10 -31 -4 -107 34 -66 33 -109 48
-148 52 -57 5 -54 1 18 -27 26 -10 27 -19 6 -45 -8 -10 -12 -12 -8 -4 4 8 -4
4 -19 -9 l-25 -23 -26 81 c-31 99 -32 121 -5 155 19 24 25 26 68 21 25 -4 73
-13 105 -21z m193 -116 c-3 -8 -6 -5 -6 6 -1 11 2 17 5 13 3 -3 4 -12 1 -19z
m568 -22 c69 -32 107 -69 97 -94 -16 -44 -103 -142 -143 -163 -50 -25 -91 -27
-181 -8 l-67 14 19 25 c25 32 25 41 -2 75 l-22 28 73 -7 c68 -6 73 -5 60 10
-11 13 -5 12 28 -4 23 -12 44 -26 48 -32 12 -19 26 -11 15 10 -6 10 -37 32
-70 47 -33 15 -58 28 -57 30 6 5 103 -24 134 -40 43 -23 53 -21 24 3 -13 11
-46 27 -75 35 -94 28 -88 35 24 29 97 -6 104 -5 89 10 -8 9 -37 25 -65 36
l-49 19 35 0 c19 1 58 -10 85 -23z m-293 -27 c21 -11 21 -12 -3 -25 -13 -7
-41 -13 -62 -14 l-38 0 18 25 c19 26 52 32 85 14z m-679 -105 l-26 -81 26 -39
c31 -44 33 -54 13 -54 -8 0 -28 21 -46 47 -35 54 -35 61 11 161 42 93 56 70
22 -34z m510 26 c9 0 19 -4 22 -10 3 -5 2 -10 -4 -10 -12 0 -84 -61 -78 -66 2
-2 30 8 63 21 80 33 136 33 154 1 11 -21 10 -29 -9 -59 -12 -19 -28 -40 -36
-47 -8 -7 -15 -17 -15 -22 0 -6 7 -5 15 2 19 15 64 -13 143 -91 51 -49 74 -92
30 -53 -57 50 -58 43 -2 -16 84 -91 125 -155 141 -219 15 -65 17 -115 4 -107
-5 3 -34 58 -65 122 -117 241 -156 274 -332 282 -108 5 -186 -10 -253 -49 -27
-16 -36 -17 -42 -7 -5 7 -9 17 -9 21 0 5 -22 29 -50 54 -27 24 -63 62 -80 83
-26 33 -30 45 -24 75 4 25 15 40 35 50 29 16 99 21 99 8 0 -5 -23 -21 -51 -36
-58 -32 -61 -45 -5 -22 62 26 70 17 35 -37 -18 -27 -29 -55 -25 -63 6 -16 94
-61 102 -52 3 2 -11 16 -31 31 l-35 27 17 30 c10 16 30 42 45 56 l27 26 48
-19 c26 -10 52 -21 58 -23 24 -9 -40 49 -66 59 -16 7 -26 16 -23 21 3 5 9 7
14 4 5 -3 26 17 46 43 l38 48 42 -28 c23 -15 49 -28 57 -28z m-244 -18 c-15
-2 -42 1 -60 6 l-34 8 30 16 c28 15 31 15 60 -5 l30 -22 -26 -3z m1058 -152
c20 -35 47 -91 59 -124 l22 -61 -35 -70 c-61 -120 -129 -217 -208 -295 -41
-41 -75 -72 -75 -69 0 3 29 57 66 120 71 125 134 252 154 312 14 44 9 77 -27
191 -14 44 -27 87 -30 95 -9 28 36 -32 74 -99z m-455 -57 c21 -8 35 -19 32
-24 -11 -18 -54 -8 -101 22 l-48 31 39 -7 c22 -3 57 -13 78 -22z m-882 -140
l0 -135 59 -81 c32 -45 94 -123 137 -172 l79 -90 -50 29 c-105 61 -193 143
-265 245 -24 34 -24 35 -12 150 14 129 30 204 43 195 5 -3 9 -66 9 -141z m600
47 c23 -7 22 -8 -10 -9 l-35 -2 31 -13 c30 -13 44 -33 44 -62 0 -9 -11 -14
-34 -14 -30 0 -36 5 -49 38 l-16 37 0 -38 c-1 -38 -1 -38 -38 -35 -31 3 -38 8
-49 38 l-12 35 -3 -45 c-3 -36 -8 -46 -24 -48 -15 -2 -24 5 -33 25 -12 28 -12
28 -8 -9 3 -25 0 -38 -10 -42 -9 -3 -14 1 -14 13 0 10 -3 33 -6 50 -5 24 -3
31 9 31 10 0 14 6 11 14 -3 7 2 16 10 19 10 4 13 1 10 -8 -5 -11 -1 -12 19 -2
14 6 23 15 21 19 -3 5 7 8 21 8 14 0 24 -3 22 -7 -3 -5 12 -8 33 -8 30 0 36 3
28 13 -8 9 -3 12 23 11 19 -1 45 -5 59 -9z m410 -161 c12 -22 24 -64 26 -92
l6 -52 -34 55 c-19 30 -57 100 -86 155 l-52 100 60 -63 c33 -34 69 -80 80
-103z m-328 139 c9 -7 21 -29 26 -48 6 -19 11 -27 11 -18 2 35 20 27 50 -22
l30 -49 -27 11 c-15 7 -31 15 -37 20 -19 17 -34 7 -37 -24 -3 -29 -6 -23 -31
47 -15 44 -27 83 -27 88 0 11 24 8 42 -5z m-350 -20 c-8 -11 -27 -121 -35
-213 -3 -29 -3 -28 -15 12 -7 23 -14 70 -15 103 -2 58 0 63 28 86 32 25 54 32
37 12z m-149 -184 c4 -4 7 8 7 27 0 53 12 139 19 139 4 0 15 -39 24 -87 10
-49 23 -108 28 -132 11 -48 41 -112 70 -150 l19 -24 0 23 0 23 18 -24 c22 -28
32 -74 23 -108 -6 -23 -12 -18 -78 65 -39 49 -99 123 -133 164 -88 107 -87
103 -48 196 l33 79 5 -92 c3 -50 9 -95 13 -99z m636 -93 c10 -10 26 -50 35
-88 14 -63 14 -74 -2 -141 l-17 -73 -38 63 -39 63 5 -127 5 -128 -42 -11 c-49
-13 -156 -17 -173 -6 -18 11 -15 175 6 312 l16 110 49 18 49 18 -7 -38 c-15
-82 -19 -190 -7 -197 7 -5 11 3 11 25 0 17 10 69 22 115 l22 83 23 -34 c13
-19 25 -35 27 -35 2 0 0 17 -5 38 -5 20 -9 40 -9 45 0 15 51 6 69 -12z m-826
-213 c-31 -75 -34 -90 -29 -153 3 -39 16 -109 30 -155 13 -47 23 -87 21 -89
-3 -2 -29 18 -59 45 l-55 49 0 111 c-1 106 0 112 30 160 25 39 87 114 95 114
1 0 -14 -37 -33 -82z m892 -125 c-7 -89 -8 -95 -21 -72 -12 22 -13 19 -7 -30
6 -51 5 -53 -14 -42 -19 9 -22 7 -27 -23 -4 -19 -13 -37 -21 -40 -9 -3 -14
-11 -13 -17 2 -6 -8 -15 -22 -21 -20 -7 -23 -7 -12 3 21 22 13 30 -13 13 -14
-9 -33 -13 -47 -9 -22 6 -22 5 2 -9 l25 -15 -33 -1 c-18 0 -31 4 -28 9 4 5
-10 8 -29 7 -20 -2 -39 2 -43 8 -4 6 -14 11 -22 11 -8 0 -23 17 -34 38 -12 25
-21 35 -26 27 -12 -19 -57 69 -64 125 l-6 50 27 -64 c24 -54 34 -67 65 -80 27
-11 39 -24 43 -43 10 -42 28 -47 20 -6 -6 34 -6 35 23 30 21 -3 34 -13 45 -35
l16 -32 0 38 c1 34 3 37 31 37 22 0 33 -7 45 -27 l16 -28 -6 30 c-5 28 -2 33
29 47 l34 17 -14 58 c-19 81 -17 93 8 54 20 -30 23 -32 34 -16 7 9 18 39 25
66 7 27 15 47 17 44 2 -2 1 -48 -3 -102z m40 -213 l-27 -109 -52 -25 c-95 -45
-185 -57 -271 -35 -49 13 -64 25 -71 63 -2 14 -9 37 -14 51 -6 15 -10 28 -10
30 0 2 25 -12 56 -30 31 -19 77 -37 101 -41 97 -14 206 36 266 124 26 36 30
53 35 144 l7 103 3 -83 c2 -62 -4 -109 -23 -192z m-81 41 c3 -5 -1 -14 -8 -20
-12 -10 -13 -8 -9 8 6 23 9 25 17 12z"/>
<path d="M3526 3999 l-67 -40 -62 25 c-65 26 -71 26 -87 -4 -9 -17 -5 -21 32
-31 24 -6 60 -20 81 -30 l37 -20 74 45 c41 25 86 48 100 52 33 8 33 18 1 32
-35 16 -33 17 -109 -29z"/>
<path d="M5757 5514 l-217 -156 32 -44 31 -43 51 36 c28 20 67 49 86 63 19 15
48 35 64 45 l28 19 -22 -45 c-13 -24 -45 -83 -71 -130 -27 -48 -49 -93 -49
-100 0 -8 14 -30 29 -49 l29 -35 35 25 c19 14 116 84 215 155 100 72 182 135
182 140 -1 6 -13 26 -28 46 l-28 37 -89 -65 c-50 -35 -103 -74 -120 -86 l-29
-22 30 55 c17 30 53 95 79 143 l47 88 -27 39 c-15 22 -31 40 -35 40 -4 0 -104
-70 -223 -156z"/>
<path d="M1909 5540 c-46 -60 -85 -113 -86 -117 -2 -8 417 -337 421 -331 141
176 237 300 235 302 -2 2 -56 30 -119 63 -63 33 -172 90 -241 126 l-126 66
-84 -109z m269 -108 l143 -73 -47 -59 c-26 -33 -49 -60 -51 -60 -3 0 -219 167
-247 191 -10 9 41 82 52 77 4 -2 71 -36 150 -76z"/>
<path d="M1718 5247 l-27 -55 46 -62 c24 -34 41 -66 36 -71 -4 -4 -41 -9 -82
-11 l-75 -3 -23 -54 -24 -53 159 7 158 7 112 -56 c61 -31 114 -56 117 -56 5 0
45 75 45 85 0 3 -51 29 -114 59 l-114 54 -78 112 c-120 171 -105 160 -136 97z"/>
<path d="M6010 5165 c-129 -62 -236 -118 -238 -123 -2 -8 110 -246 123 -260 2
-2 24 7 49 20 l46 23 -40 84 c-22 46 -39 85 -38 87 8 7 130 65 132 62 2 -2 20
-40 41 -85 21 -46 40 -83 42 -83 4 0 86 41 91 45 2 2 -11 31 -28 65 -53 106
-54 108 -20 125 l30 15 41 -82 c23 -46 42 -84 44 -86 3 -4 95 38 95 44 0 6
-130 264 -133 263 -1 0 -108 -51 -237 -114z"/>
<path d="M6195 4829 c-115 -33 -226 -64 -246 -69 l-37 -10 14 -47 c8 -25 16
-48 18 -50 2 -3 45 7 95 21 l90 24 7 -36 c7 -35 5 -38 -70 -107 l-78 -70 12
-48 c7 -26 16 -49 20 -52 4 -2 41 25 83 60 l75 65 7 -30 c4 -16 11 -32 16 -35
10 -7 309 73 323 86 6 5 3 31 -6 66 -9 32 -31 111 -48 176 -25 90 -36 117 -49
116 -9 -1 -110 -28 -226 -60z m187 -139 c10 -36 18 -70 18 -76 0 -10 -118 -49
-126 -42 -4 5 -44 151 -41 154 7 6 104 32 116 31 8 -1 22 -29 33 -67z"/>
<path d="M1527 4803 c-6 -10 -47 -167 -47 -181 0 -8 72 -32 94 -32 3 0 11 20
17 45 9 35 15 44 28 41 9 -3 79 -22 156 -42 77 -20 141 -38 142 -38 1 -1 -5
-30 -14 -64 -17 -68 -20 -70 -86 -51 -35 9 -38 13 -32 38 5 26 3 28 -42 39
-26 6 -51 8 -54 4 -8 -10 -42 -142 -38 -146 2 -2 72 -22 156 -44 136 -36 153
-38 157 -24 33 109 84 318 78 323 -4 3 -115 34 -247 69 -132 35 -245 65 -251
67 -7 2 -14 1 -17 -4z"/>
<path d="M2095 2835 c-60 -47 -115 -91 -122 -97 -9 -10 4 -34 67 -118 l80
-105 -38 -32 c-20 -18 -40 -33 -44 -33 -4 0 -43 47 -85 105 -48 64 -83 102
-92 100 -18 -7 -70 -48 -70 -57 -1 -8 218 -298 224 -298 2 0 60 43 130 96 73
56 123 100 119 106 -4 6 -40 54 -81 107 l-73 96 37 32 c21 18 41 33 45 33 4 0
41 -45 82 -99 42 -55 80 -102 84 -105 5 -3 26 9 47 27 l38 33 -112 147 c-62
81 -115 147 -119 146 -4 0 -56 -38 -117 -84z"/>
<path d="M5591 2724 c-62 -80 -111 -147 -109 -148 2 -1 50 -38 108 -83 281
-214 279 -213 314 -213 25 0 38 7 50 25 9 13 16 26 16 29 0 2 -31 28 -70 57
-38 30 -70 57 -70 61 0 4 10 18 23 32 l22 25 99 -20 99 -21 33 39 c18 21 32
42 30 48 -1 5 -42 17 -91 27 -48 10 -91 20 -93 23 -3 3 4 18 15 33 l21 28
-134 102 c-73 56 -137 102 -142 102 -5 0 -60 -66 -121 -146z m199 -41 c30 -22
46 -41 41 -47 -4 -6 -25 -33 -46 -61 -22 -27 -41 -52 -42 -54 -2 -4 -48 26
-96 63 -17 13 -16 18 29 75 26 34 51 61 56 61 5 0 31 -17 58 -37z"/>
<path d="M2431 2566 c-17 -17 -31 -37 -31 -43 0 -6 21 -30 46 -52 43 -37 46
-43 32 -59 -8 -9 -66 -75 -128 -147 -63 -71 -120 -137 -127 -146 -11 -13 -7
-21 25 -52 l38 -37 144 164 143 165 51 -45 50 -44 33 32 c18 18 33 37 33 43 0
5 -62 65 -139 132 l-139 121 -31 -32z"/>
<path d="M5307 2430 c-37 -31 -70 -60 -73 -63 -6 -5 238 -497 246 -497 3 0 22
15 44 33 l38 32 -28 59 -29 58 27 20 c15 10 36 38 46 61 20 44 51 81 91 110
14 9 23 18 20 20 -8 7 -294 213 -304 219 -6 3 -41 -20 -78 -52z m159 -136 c43
-31 81 -58 83 -60 4 -4 -80 -83 -89 -84 -3 0 -26 42 -52 94 -63 127 -58 132
58 50z"/>
<path d="M2631 2094 c-74 -129 -132 -236 -130 -237 25 -19 82 -46 89 -42 5 3
28 39 50 81 23 41 45 74 48 72 4 -2 19 -10 35 -18 l27 -13 -6 -91 c-3 -50 -7
-97 -10 -104 -3 -11 78 -72 97 -72 4 0 10 45 14 100 4 55 9 100 12 100 2 0 17
-7 33 -15 28 -14 30 -14 43 7 35 56 157 271 157 277 0 5 -124 78 -284 167
l-41 23 -134 -235z m246 49 c34 -20 63 -41 63 -46 0 -15 -54 -107 -63 -107
-12 0 -137 70 -137 77 0 8 64 113 69 113 2 0 33 -17 68 -37z"/>
<path d="M4972 2201 c-67 -37 -125 -71 -128 -74 -6 -6 35 -82 188 -354 l68
-122 128 71 c70 40 128 72 130 73 1 1 -9 23 -24 48 l-26 47 -29 -15 c-16 -9
-52 -29 -79 -45 -28 -17 -53 -30 -55 -30 -2 0 -20 28 -40 62 -42 70 -43 67 45
113 86 44 86 45 59 93 -13 23 -27 42 -31 42 -3 0 -41 -20 -85 -44 l-78 -45
-16 32 -17 32 79 43 c43 24 79 49 79 55 0 7 -10 29 -23 49 l-22 37 -123 -68z"/>
<path d="M6914 2129 c-3 -6 -2 -14 4 -18 8 -5 7 -24 -3 -66 -21 -89 -20 -105
9 -105 26 0 44 16 26 22 -7 2 -6 28 5 76 8 40 15 80 15 88 0 17 -46 19 -56 3z"/>
<path d="M6748 2125 c-4 -4 -5 -19 -2 -34 3 -14 -1 -54 -10 -88 l-14 -63 23 0
c17 0 24 7 28 29 5 25 12 29 49 34 65 9 103 73 63 107 -16 14 -126 26 -137 15z
m100 -37 c17 -22 -4 -58 -33 -58 -26 0 -32 19 -19 54 7 19 38 21 52 4z"/>
<path d="M7470 2120 c0 -5 5 -10 10 -10 6 0 10 5 10 10 0 6 -4 10 -10 10 -5 0
-10 -4 -10 -10z"/>
<path d="M3045 1870 c-50 -144 -84 -255 -79 -260 8 -8 267 -101 269 -97 17 34
33 93 27 98 -4 3 -43 19 -87 34 -44 16 -81 29 -83 30 -1 1 10 33 24 72 l26 71
79 -29 c44 -16 86 -29 93 -29 13 0 44 86 34 95 -2 2 -40 17 -84 32 -72 26 -79
31 -76 53 1 14 6 28 10 32 5 5 47 -5 95 -21 l88 -30 10 27 c29 77 33 73 -108
121 -70 24 -133 46 -139 48 -6 2 -47 -100 -99 -247z"/>
<path d="M6187 2113 c-4 -3 -7 -15 -7 -25 0 -11 -4 -16 -10 -13 -16 10 -47
-13 -54 -39 -10 -39 2 -54 39 -53 l33 1 7 64 c7 63 5 78 -8 65z m-7 -64 c0
-20 -21 -49 -35 -49 -16 0 -19 18 -9 44 7 18 44 22 44 5z"/>
<path d="M6480 2104 c0 -8 5 -12 10 -9 6 4 8 11 5 16 -9 14 -15 11 -15 -7z"/>
<path d="M6587 2090 c-15 -83 -17 -110 -9 -110 5 0 13 17 18 37 6 24 16 39 28
41 16 3 17 -1 11 -37 -5 -28 -3 -41 5 -41 7 0 10 17 8 48 -3 42 -5 47 -25 45
-17 -2 -23 4 -25 25 -4 25 -4 25 -11 -8z"/>
<path d="M7530 2105 c0 -9 -7 -18 -16 -22 -9 -3 -11 -8 -6 -12 7 -4 7 -22 0
-54 -13 -61 -6 -77 29 -76 24 2 25 2 6 6 -24 5 -27 15 -16 76 4 26 13 41 27
47 18 8 18 9 3 9 -14 1 -17 6 -12 21 4 11 2 20 -4 20 -6 0 -11 -7 -11 -15z"/>
<path d="M4770 2088 c-19 -5 -38 -13 -42 -16 -6 -6 2 -183 17 -369 5 -57 3
-73 -7 -73 -7 0 -44 62 -82 138 -57 113 -69 148 -74 200 -2 34 -9 62 -14 62
-24 0 -138 -35 -138 -42 0 -5 11 -30 24 -57 21 -40 26 -72 36 -206 6 -87 8
-160 5 -164 -11 -10 -32 26 -122 204 -47 94 -89 174 -93 178 -9 11 -100 -12
-100 -26 0 -24 245 -487 255 -483 7 2 49 14 95 27 l82 22 -4 75 -5 76 34 -67
c18 -37 37 -67 41 -67 11 1 175 49 179 54 2 2 -3 112 -12 245 -8 134 -15 256
-15 272 0 31 -5 33 -60 17z"/>
<path d="M6525 2083 c-15 -27 -7 -103 11 -103 8 0 14 5 14 10 0 6 -4 10 -8 10
-5 0 -7 14 -4 30 2 17 9 30 14 30 7 0 6 5 -1 13 -6 8 -8 17 -4 20 3 4 2 7 -3
7 -5 0 -14 -8 -19 -17z"/>
<path d="M5886 2065 c-9 -25 -7 -91 3 -79 13 14 21 68 12 83 -6 10 -10 9 -15
-4z"/>
<path d="M5915 2070 c-3 -5 1 -10 10 -10 12 0 14 -8 9 -40 -4 -27 -3 -40 5
-40 6 0 11 13 11 28 0 28 15 52 33 52 6 0 7 -17 3 -40 -4 -25 -2 -40 4 -40 5
0 10 8 10 18 0 9 3 26 5 37 3 11 1 27 -5 35 -8 12 -13 13 -29 3 -13 -8 -22 -9
-26 -3 -8 13 -22 13 -30 0z"/>
<path d="M6039 2059 c-13 -13 -19 -30 -17 -47 2 -23 8 -27 33 -27 33 0 43 14
44 63 1 26 -3 32 -19 32 -11 0 -29 -9 -41 -21z m41 -13 c0 -25 -12 -46 -26
-46 -14 0 -20 41 -7 53 12 12 33 7 33 -7z"/>
<path d="M6230 2060 c-23 -23 -26 -50 -8 -68 15 -15 45 -16 54 -1 4 7 -2 9
-16 7 -31 -4 -37 18 -8 27 30 10 40 26 26 42 -14 18 -25 16 -48 -7z m40 -10
c0 -5 -9 -10 -21 -10 -11 0 -17 5 -14 10 3 6 13 10 21 10 8 0 14 -4 14 -10z"/>
<path d="M6339 2075 c-7 -13 10 -95 19 -95 4 0 14 15 21 33 14 31 14 32 18 7
8 -46 22 -45 44 4 11 26 18 50 15 54 -4 3 -12 -9 -18 -26 -14 -38 -28 -42 -28
-9 0 38 -13 40 -31 5 l-17 -33 -9 35 c-5 19 -11 30 -14 25z"/>
<path d="M6478 2067 c-5 -10 -8 -35 -8 -55 1 -30 2 -34 11 -19 6 9 9 34 7 55
-2 28 -5 32 -10 19z"/>
<path d="M7014 2065 c-32 -22 -49 -71 -36 -100 10 -21 17 -23 76 -23 50 0 66
4 66 14 0 8 -4 14 -9 14 -5 0 -3 25 4 55 l12 55 -46 0 c-26 0 -56 -7 -67 -15z
m66 -12 c0 -26 -23 -82 -34 -86 -36 -14 -41 37 -8 76 15 17 42 24 42 10z"/>
<path d="M7162 2057 c-54 -57 -30 -121 44 -115 20 2 39 9 42 16 3 8 -6 12 -29
10 -25 -2 -34 1 -37 15 -10 48 31 98 50 62 14 -24 40 -19 36 8 -2 18 -10 23
-43 25 -32 2 -45 -2 -63 -21z"/>
<path d="M7317 2069 c-11 -6 -25 -27 -33 -46 -13 -31 -13 -38 1 -59 14 -21 23
-25 57 -22 23 2 43 9 46 16 2 8 -6 12 -29 10 -18 -2 -34 2 -36 10 -3 7 5 12
22 12 14 0 37 11 51 25 20 20 23 28 14 45 -12 22 -62 27 -93 9z m58 -30 c0 -8
-12 -15 -30 -17 -30 -4 -30 -4 -11 17 21 23 41 23 41 0z"/>
<path d="M7448 2071 c11 -6 11 -16 3 -47 -14 -52 -14 -84 2 -84 7 0 12 14 12
38 0 20 4 52 9 70 7 29 6 32 -16 32 -16 0 -19 -3 -10 -9z"/>
<path d="M3450 2006 c0 -4 -20 -120 -45 -259 -25 -140 -45 -258 -45 -264 0 -5
57 -20 128 -32 70 -12 135 -24 144 -27 13 -4 18 3 23 33 4 21 9 45 11 54 4 14
-12 20 -91 34 -67 12 -95 21 -92 29 3 7 8 38 12 70 4 31 10 58 14 60 4 3 40
-2 81 -10 109 -20 107 -21 115 32 8 57 6 58 -96 74 -70 11 -79 15 -79 34 0 47
11 50 106 32 48 -9 89 -14 91 -12 2 2 6 26 10 53 l5 50 -128 22 c-71 12 -137
24 -146 27 -10 3 -18 3 -18 0z"/>
<path d="M3777 1944 c-4 -4 -7 -29 -7 -56 l0 -48 70 0 70 0 0 -215 0 -215 55
0 55 0 0 215 0 215 64 0 c36 0 68 5 71 11 4 6 4 30 1 54 l-7 44 -183 1 c-100
0 -185 -3 -189 -6z"/>
</g>
</svg>
